<svg id="Layer_5" enable-background="new 0 0 64 64" height="512" viewBox="0 0 64 64" width="512" xmlns="http://www.w3.org/2000/svg" xmlns:xlink="http://www.w3.org/1999/xlink"><linearGradient id="SVGID_1_" gradientUnits="userSpaceOnUse" x1="32" x2="32" y1="63" y2="1"><stop offset="0" stop-color="#9f2fff"/><stop offset="1" stop-color="#0bb1d3"/></linearGradient><path d="m44 43v1c0 .551.449 1 1 1h2c1.654 0 3 1.346 3 3v3h-3v2h-2v-2c-1.654 0-3-1.346-3-3h2c0 .551.449 1 1 1h3v-1c0-.551-.449-1-1-1h-2c-1.654 0-3-1.346-3-3v-3h3v-2h2v2c1.654 0 3 1.346 3 3h-2c0-.551-.449-1-1-1zm13 3c0 6.065-4.935 11-11 11s-11-4.935-11-11 4.935-11 11-11 11 4.935 11 11zm-2 0c0-4.962-4.038-9-9-9s-9 4.038-9 9 4.038 9 9 9 9-4.038 9-9zm5.58-3.527 2.42.806v5.441l-2.42.807c-.365 1.515-.96 2.952-1.777 4.285l1.143 2.284-3.848 3.848-2.284-1.143c-1.333.817-2.77 1.413-4.285 1.777l-.808 2.422h-5.441l-.807-2.42c-1.515-.365-2.952-.96-4.285-1.777l-2.284 1.143-3.848-3.848 1.143-2.284c-.817-1.333-1.413-2.77-1.777-4.285l-2.422-.808v-5.441l2.42-.807c.12-.501.276-.99.446-1.473h-27.866c-1.654 0-3-1.346-3-3v-34c0-1.654 1.346-3 3-3h50c1.654 0 3 1.346 3 3v28.958l2.945 2.945-1.143 2.284c.817 1.334 1.413 2.771 1.778 4.286zm-27.838-3.473c.145-.274.293-.547.455-.813l-1.143-2.284 3.848-3.848 2.284 1.143c1.334-.817 2.77-1.413 4.285-1.777l.808-2.421h5.441l.807 2.42c1.515.365 2.952.96 4.285 1.777l1.188-.593v-28.604c0-.551-.449-1-1-1h-50c-.551 0-1 .449-1 1v34c0 .551.449 1 1 1zm28.258 5.721-2.142-.714-.113-.569c-.332-1.66-.979-3.219-1.922-4.636l-.323-.483 1.011-2.021-1.809-1.809-2.021 1.011-.483-.322c-1.416-.944-2.976-1.591-4.635-1.922l-.569-.113-.715-2.143h-2.559l-.714 2.142-.569.113c-1.66.332-3.219.979-4.635 1.922l-.483.323-2.021-1.011-1.809 1.809 1.011 2.021-.322.483c-.944 1.417-1.591 2.976-1.922 4.636l-.113.569-2.143.714v2.559l2.142.714.113.569c.332 1.66.979 3.219 1.922 4.635l.322.483-1.011 2.021 1.809 1.809 2.021-1.011.483.322c1.416.944 2.976 1.591 4.635 1.922l.569.113.716 2.143h2.559l.714-2.142.569-.113c1.66-.332 3.219-.979 4.635-1.922l.483-.322 2.021 1.011 1.809-1.809-1.011-2.022.322-.483c.944-1.416 1.591-2.976 1.922-4.635l.113-.569 2.143-.715zm-36-20.458v2.737h-20v-2.737c0-1.777 1.193-3.358 2.901-3.846l2.648-.757c.502-.143.914-.479 1.171-.917-.824-.723-1.416-1.699-1.626-2.819-1.761-.347-3.094-1.901-3.094-3.762 0-2.24 1.377-4.229 3.451-5.027 1.388-1.377 3.229-2.135 5.185-2.135 4.061 0 7.364 3.303 7.364 7.364 0 1.82-1.348 3.318-3.096 3.582-.214 1.111-.805 2.079-1.624 2.798.256.438.668.774 1.17.917l2.649.757c1.708.486 2.901 2.068 2.901 3.845zm-10-6.263c1.654 0 3-1.346 3-3v-2h-.764c-1.522 0-3.046-.339-4.427-.982-.46.089-.809.496-.809.982v2c0 1.654 1.346 3 3 3zm-2-8h.236l.211.105c1.17.585 2.48.895 3.789.895h2.764v2.871c.587-.249 1-.831 1-1.508 0-2.957-2.406-5.363-5.364-5.363-1.433 0-2.78.558-3.793 1.571l-.303.303-.224.075c-1.385.462-2.316 1.753-2.316 3.213 0 .71.409 1.32 1 1.626v-.788c0-1.654 1.346-3 3-3zm10 14.263c0-.888-.596-1.679-1.45-1.923l-2.649-.757c-1.012-.289-1.85-.964-2.362-1.851-.488.16-.999.268-1.539.268s-1.051-.108-1.539-.268c-.512.887-1.349 1.562-2.362 1.851l-2.648.757c-.855.244-1.451 1.035-1.451 1.923v.737h16zm-18 4.737h20v8h-20zm2 6h16v-4h-16zm46-24h-26v-6h26zm-12-2h4v-2h-4zm-2-2h-4v2h4zm-10 2h4v-2h-4zm22-2h-4v2h4zm2 6h-26v2h26zm-2 6h2v-2h-2zm-2-2h-22v2h22zm-16 6v-2h-2v2zm-4-2h-2v2h2zm6 2h18v-2h-18zm18 2h-26v2h26z" fill="url(#SVGID_1_)"/></svg>