<svg id="Layer_5" enable-background="new 0 0 64 64" height="512" viewBox="0 0 64 64" width="512" xmlns="http://www.w3.org/2000/svg" xmlns:xlink="http://www.w3.org/1999/xlink"><linearGradient id="SVGID_1_" gradientUnits="userSpaceOnUse" x1="32" x2="32" y1="63" y2="1"><stop offset="0" stop-color="#9f2fff"/><stop offset="1" stop-color="#0bb1d3"/></linearGradient><path d="m7 8.816v54.184h50v-54.184c1.161-.414 2-1.514 2-2.816v-2c0-1.654-1.346-3-3-3h-48c-1.654 0-3 1.346-3 3v2c0 1.302.839 2.402 2 2.816zm48 26.184h-22-1.987-22.013v-26h46zm-14 15.09c-2.507.423-4.486 2.403-4.91 4.91h-8.18c-.423-2.507-2.403-4.486-4.91-4.91v-7.786c1.992 2.835 5.28 4.696 9 4.696s7.008-1.861 9-4.695zm0 2.052v2.858h-2.858c.364-1.399 1.459-2.494 2.858-2.858zm-24-15.142h4v4h-4zm17 1v1h-3c-.551 0-1-.449-1-1h-2c0 1.654 1.346 3 3 3v2h2v-2h3v-3c0-.352-.072-.686-.184-1h5.125c-.5 4.493-4.317 8-8.941 8s-8.441-3.507-8.941-8h7.954 1.987c.551 0 1 .449 1 1zm-11 14.142c1.399.364 2.494 1.459 2.858 2.858h-2.858zm20-15.142h4v4h-4zm-34 24v-24h6v6h6v14h22v-14h6v-6h6v24zm-2-57c0-.551.449-1 1-1h48c.551 0 1 .449 1 1v2c0 .551-.449 1-1 1h-48c-.551 0-1-.449-1-1zm6 29h22c1.103 0 2-.897 2-2v-18c0-1.103-.897-2-2-2h-22c-1.103 0-2 .897-2 2v18c0 1.103.897 2 2 2zm0-20h22l.001 18h-22.001zm2 16h18v-14h-18zm2-12h14v10h-14zm34 32h2v2h-2zm0 8h2v2h-2zm0-4h2v2h-2zm-40-4h2v2h-2zm0 4h2v2h-2zm0 4h2v2h-2zm42-38h-14v14h14zm-2 4h-2v-2h2zm-6 4v-2h2v2zm2 2v2h-2v-2zm-4-2h-2v-2h2zm2-4v-2h2v2zm4 2h2v2h-2zm-6-4v2h-2v-2zm-2 8h2v2h-2zm8 2v-2h2v2zm4-20h-14v6h14zm-2 4h-10v-2h10z" fill="url(#SVGID_1_)"/></svg>