<svg id="Layer_5" enable-background="new 0 0 64 64" height="512" viewBox="0 0 64 64" width="512" xmlns="http://www.w3.org/2000/svg" xmlns:xlink="http://www.w3.org/1999/xlink"><linearGradient id="SVGID_1_" gradientUnits="userSpaceOnUse" x1="32" x2="32" y1="63" y2="1"><stop offset="0" stop-color="#9f2fff"/><stop offset="1" stop-color="#0bb1d3"/></linearGradient><path d="m24 29v1c0 .551.448 1 1 1h2c1.654 0 3 1.346 3 3v3h-3v2h-2v-2c-1.654 0-3-1.346-3-3h2c0 .551.448 1 1 1h3v-1c0-.551-.448-1-1-1h-2c-1.654 0-3-1.346-3-3v-3h3v-2h2v2c1.654 0 3 1.346 3 3h-2c0-.551-.448-1-1-1zm39 1.95c0 1.589-.619 3.083-1.743 4.208l-1.843 1.842.672.672c.59.589.914 1.373.914 2.207v.242c0 .834-.324 1.618-.914 2.207l-7.758 7.758c-.212.212-.328.493-.328.793 0 .618.503 1.121 1.121 1.121.295 0 .584-.12.793-.328l.379-.379 1.414 1.414-.379.379c-.581.581-1.385.914-2.207.914-1.721 0-3.121-1.4-3.121-3.121 0-.834.324-1.618.914-2.207l7.758-7.758c.212-.212.328-.493.328-.793v-.242c0-.3-.116-.581-.328-.793l-.672-.672-20.424 20.424-8.85 3.933c-.34.152-.703.229-1.077.229-1.461 0-2.649-1.189-2.649-2.65 0-.373.077-.734.229-1.076l3.933-8.85.132-.131 7.292-7.293h-35.586v-29c0-2.757 2.243-5 5-5h15v-8h38v17c0 1.627-.793 3.061-2 3.974v3.028c.017 0 .033-.002.05-.002 3.281 0 5.95 2.669 5.95 5.95zm-40-12.95c0 1.125-.373 2.164-1.002 3h32.002c1.654 0 3-1.346 3-3v-15h-34zm-8 0c0 1.654 1.346 3 3 3s3-1.346 3-3v-3h-6zm-11.816-5h17.816v-2h-15c-1.302 0-2.402.839-2.816 2zm14.816 21h-5.586l5.586 5.586zm-9-.586v-18.414h-2v26h9.586zm-6 7.586h2v-26h-2zm35.586 0 2-2h-7.586v-2h9.585l2-2h-11.585v-2h13.585l2-2h-15.585v-6h20v1.6c.587-.547 1.265-.962 2-1.231v-2.469c-.323.065-.658.1-1 .1h-36c-2.757 0-5-2.243-5-5v-3h-2v17h9v9zm-1.586 15.586 1.586-1.586-5.586-5.586-1.586 1.586zm3-3 1.586-1.586-5.586-5.586-1.586 1.586zm3-3 11.586-11.586-5.586-5.586-11.586 11.586zm8-23.586h-16v2h15.585l.415-.415zm-15.737 30.677-4.941-4.941-3.266 7.35c-.037.084-.056.173-.056.264 0 .451.508.774.914.594zm25.737-26.727c0-2.178-1.772-3.95-3.95-3.95-1.055 0-2.047.411-2.793 1.157l-3.843 3.843 5.586 5.586 3.843-3.843c.746-.746 1.157-1.738 1.157-2.793zm-6-25.95h-2v2h2zm-4 0h-2v2h2zm-4 0h-2v2h2z" fill="url(#SVGID_1_)"/></svg>