<svg id="Layer_5" enable-background="new 0 0 64 64" height="512" viewBox="0 0 64 64" width="512" xmlns="http://www.w3.org/2000/svg" xmlns:xlink="http://www.w3.org/1999/xlink"><linearGradient id="SVGID_1_" gradientUnits="userSpaceOnUse" x1="32" x2="32" y1="63" y2="1"><stop offset="0" stop-color="#9f2fff"/><stop offset="1" stop-color="#0bb1d3"/></linearGradient><path d="m30 49v1c0 .551.449 1 1 1h2c1.654 0 3 1.346 3 3v3h-3v2h-2v-2c-1.654 0-3-1.346-3-3h2c0 .551.449 1 1 1h3v-1c0-.551-.449-1-1-1h-2c-1.654 0-3-1.346-3-3v-3h3v-2h2v2c1.654 0 3 1.346 3 3h-2c0-.551-.449-1-1-1zm33 3c0 3.86-3.14 7-7 7h-15.521c-2.019 2.441-5.07 4-8.479 4s-6.459-1.559-8.479-4h-13.808l-7.395-4.622c-.825-.516-1.318-1.404-1.318-2.378s.493-1.862 1.318-2.378l7.395-4.622h13.808c2.019-2.441 5.07-4 8.479-4s6.459 1.559 8.479 4h15.521c3.86 0 7 3.14 7 7zm-21.214-5c.626 1.221 1.034 2.57 1.164 4h8.05v-4zm-19.572 0h-11.214v4h10.051c.129-1.43.537-2.779 1.163-4zm-18.836 5.682 5.622 3.514v-8.392l-5.622 3.514c-.237.148-.378.403-.378.682s.141.534.378.682zm18.836 4.318c-.626-1.221-1.034-2.57-1.164-4h-10.05v4zm18.786-5c0-4.962-4.038-9-9-9s-9 4.038-9 9 4.038 9 9 9 9-4.038 9-9zm.786 5h9.214v-4h-8.051c-.129 1.43-.537 2.779-1.163 4zm19.214-5c0-2.757-2.243-5-5-5h-3v10h3c2.757 0 5-2.243 5-5zm2-48v30c0 1.654-1.346 3-3 3h-8.586l-5.293 5.293c-.456.456-1.062.707-1.707.707-1.331 0-2.414-1.083-2.414-2.414v-3.586h-6c-1.654 0-3-1.346-3-3v-30c0-1.654 1.346-3 3-3h24c1.654 0 3 1.346 3 3zm-2 0c0-.551-.449-1-1-1h-24c-.551 0-1 .449-1 1v30c0 .551.449 1 1 1h8v5.586c0 .338.468.531.707.293l5.879-5.879h9.414c.551 0 1-.449 1-1zm-8 21c0 4.411-3.589 8-8 8s-8-3.589-8-8 3.589-8 8-8 8 3.589 8 8zm-2 0c0-3.309-2.691-6-6-6s-6 2.691-6 6 2.691 6 6 6 6-2.691 6-6zm-46 0c0-4.411 3.589-8 8-8s8 3.589 8 8-3.589 8-8 8-8-3.589-8-8zm2 0c0 3.309 2.691 6 6 6s6-2.691 6-6-2.691-6-6-6-6 2.691-6 6zm-6 9v-30c0-1.654 1.346-3 3-3h24c1.654 0 3 1.346 3 3v30c0 1.654-1.346 3-3 3h-6v3.586c0 1.331-1.083 2.414-2.414 2.414-.645 0-1.251-.251-1.707-.707l-5.293-5.293h-8.586c-1.654 0-3-1.346-3-3zm2 0c0 .551.449 1 1 1h9.414l5.879 5.879c.238.238.707.045.707-.293v-5.586h8c.551 0 1-.449 1-1v-30c0-.551-.449-1-1-1h-24c-.551 0-1 .449-1 1zm44.293-12.707-2.293 2.293-2.293-2.293-1.414 1.414 2.293 2.293-2.293 2.293 1.414 1.414 2.293-2.293 2.293 2.293 1.414-1.414-2.293-2.293 2.293-2.293zm-8.293-16.293h-2v2h2zm2 2h18v-2h-18zm-4 4h22v-2h-22zm0 4h22v-2h-22zm18 4h4v-2h-4zm0 4h4v-2h-4zm0 4h4v-2h-4zm0 4h4v-2h-4zm-48-26h-2v2h2zm20 0h-18v2h18zm0 4h-22v2h22zm-10.293 14.707-1.414-1.414-4.293 4.293-1.293-1.293-1.414 1.414 2.707 2.707zm-9.707-10.707h-2v2h2zm4 2v-2h-2v2zm2 0h14v-2h-14zm10 4h4v-2h-4zm0 4h4v-2h-4zm0 4h4v-2h-4zm0 4h4v-2h-4z" fill="url(#SVGID_1_)"/></svg>