<svg id="Layer_5" enable-background="new 0 0 64 64" height="512" viewBox="0 0 64 64" width="512" xmlns="http://www.w3.org/2000/svg" xmlns:xlink="http://www.w3.org/1999/xlink"><linearGradient id="SVGID_1_" gradientUnits="userSpaceOnUse" x1="32" x2="32" y1="63" y2="1"><stop offset="0" stop-color="#9f2fff"/><stop offset="1" stop-color="#0bb1d3"/></linearGradient><path d="m46 13v1c0 .551.448 1 1 1h2c1.654 0 3 1.346 3 3v3h-3v2h-2v-2c-1.654 0-3-1.346-3-3h2c0 .551.448 1 1 1h3v-1c0-.551-.448-1-1-1h-2c-1.654 0-3-1.346-3-3v-3h3v-2h2v2c1.654 0 3 1.346 3 3h-2c0-.551-.448-1-1-1zm13 3c0 6.065-4.935 11-11 11s-11-4.935-11-11 4.935-11 11-11 11 4.935 11 11zm-2 0c0-4.962-4.037-9-9-9s-9 4.038-9 9 4.037 9 9 9 9-4.038 9-9zm6 0c0 8.271-6.729 15-15 15-4.348 0-8.258-1.871-11-4.836v2.836h.892l1.845 15.992 6.263-3.758v3.766h5v-10h2v12h-9v-2.234l-7.057 4.234 7.057 4.234v-2.234h13v-16h2v18h-13v3.766l-5.27-3.162.226 1.957c.029.255.044.51.044.765 0 3.68-2.994 6.674-6.674 6.674h-26.652c-3.68 0-6.674-2.994-6.674-6.674 0-.255.015-.51.043-.763l3.065-26.563h.892v-6h4v-7.289c-1.175-.521-2-1.694-2-3.06v-1.302c0-1.366.825-2.539 2-3.06v-7.289h24v15 7h1.744c-1.109-2.092-1.744-4.472-1.744-7 0-8.271 6.729-15 15-15s15 6.729 15 15zm-30 9v4h2v-4zm-22-9.071v13.071h4v-14.184c-.331-.118-.631-.292-.897-.511l-2.03 1.218c-.332.199-.696.331-1.073.406zm4-3.929c0 .551.448 1 1 1s1-.449 1-1-.448-1-1-1-1 .449-1 1zm2 17h14v-16h-6.035c-.177 1.681-1.587 3-3.314 3-.606 0-1.202-.165-1.723-.478l-2.03-1.218c-.266.219-.566.393-.897.511v14.185zm2-17c0 .205-.021.404-.06.597l2.017 1.21c.21.127.449.193.693.193.744 0 1.35-.605 1.35-1.349v-1.302c0-.744-.605-1.349-1.35-1.349-.244 0-.483.066-.693.192l-2.017 1.21c.039.194.06.393.06.598zm12-9h-14v6.184c.331.118.631.292.897.511l2.03-1.218c.521-.312 1.117-.477 1.723-.477 1.727 0 3.137 1.319 3.314 3h6.036zm-20 0v5.072c.377.075.742.207 1.073.406l2.029 1.217c.267-.219.567-.393.898-.511v-6.184zm-2 9.651c0 .744.605 1.349 1.35 1.349.244 0 .484-.066.692-.192l2.018-1.211c-.039-.193-.06-.392-.06-.597s.021-.404.06-.597l-2.017-1.21c-.209-.127-.449-.193-.693-.193-.745 0-1.35.605-1.35 1.349zm-2 12.349v4h2v-4zm30.854 21.122-1.746-15.122h-.108-30-.108l-2.862 24.791c-.019.176-.03.355-.03.535 0 2.577 2.097 4.674 4.674 4.674h26.652c2.577 0 4.674-2.097 4.674-4.674 0-.18-.011-.359-.031-.538l-.402-3.482-5.51-3.306zm23.146-30.122c0-7.168-5.832-13-13-13s-13 5.832-13 13 5.832 13 13 13 13-5.832 13-13zm-32 23c0 4.411-3.589 8-8 8s-8-3.589-8-8v-6h-2v6c0 5.514 4.486 10 10 10s10-4.486 10-10v-6h-2z" fill="url(#SVGID_1_)"/></svg>