<svg id="Layer_5" enable-background="new 0 0 64 64" height="512" viewBox="0 0 64 64" width="512" xmlns="http://www.w3.org/2000/svg" xmlns:xlink="http://www.w3.org/1999/xlink"><linearGradient id="SVGID_1_" gradientUnits="userSpaceOnUse" x1="32" x2="32" y1="63" y2="1"><stop offset="0" stop-color="#9f2fff"/><stop offset="1" stop-color="#0bb1d3"/></linearGradient><path d="m53 3h-1.764l-2.522-1.261c-.967-.484-2.049-.739-3.131-.739h-8.583c-1.103 0-2 .897-2 2 0 .732.212 1.409.556 2h-4.556c-1.654 0-3 1.346-3 3 0 .352.072.686.184 1h-.184c-1.654 0-3 1.346-3 3 0 1.065.562 1.997 1.401 2.529-.248.437-.401.934-.401 1.471 0 1.654 1.346 3 3 3h.184c-.112.314-.184.648-.184 1 0 1.654 1.346 3 3 3h.279c-.176.662-.279 1.354-.279 2.071v.649c0 2.379 1.042 4.625 2.857 6.161l6.049 5.119h-12.633c.459-1.031.727-2.146.727-3.279v-.649c0-4.451-3.621-8.072-8.071-8.072-2.156 0-4.183.84-5.707 2.364l-.222.222-.222-.222c-1.524-1.524-3.551-2.364-5.707-2.364-4.45 0-8.071 3.621-8.071 8.071v.649c0 2.379 1.042 4.624 2.857 6.161l.28.237-2.58 6.882h3.443v16h54v-16h3.443l-3.75-10h-7.599l6.049-5.118c1.815-1.537 2.857-3.782 2.857-6.162v-.649c0-.717-.103-1.409-.279-2.071h3.279v-22h-10zm-25 13c0-.551.449-1 1-1h11v-2h-11-1c-.551 0-1-.449-1-1s.449-1 1-1h3 9v-2h-9c-.551 0-1-.449-1-1s.449-1 1-1h8 1 4v-2h-4-1c-1.103 0-2-.897-2-2h8.583c.772 0 1.545.183 2.236.528l2.945 1.472h2.236v12.08c-.351-.047-.707-.08-1.071-.08-2.156 0-4.183.84-5.707 2.364l-.222.222-.222-.222c-1.524-1.524-3.551-2.364-5.707-2.364-.024 0-.047.003-.071.004v-.004h-8-3c-.551 0-1-.449-1-1zm4 5c-.551 0-1-.449-1-1s.449-1 1-1h2.77c-.654.572-1.214 1.247-1.656 2zm-29 12.721v-.649c0-3.348 2.724-6.072 6.071-6.072 1.622 0 3.146.631 4.293 1.778l1.636 1.636 1.636-1.636c1.147-1.147 2.671-1.778 4.293-1.778 3.347 0 6.071 2.724 6.071 6.071v.649c0 1.162-.359 2.303-.987 3.279h-8.013-4c-.551 0-1-.448-1-1v-1h3c.551 0 1 .448 1 1h2c0-1.654-1.346-3-3-3v-2h-2v2h-3v3c0 .352.072.686.184 1h-5.877l-.416 1.11c-1.202-1.142-1.891-2.719-1.891-4.388zm1.443 11.279 2.25-6h7.307 4 9.557l-2.25 6zm2.557 2h19.693l2.307-6.152v20.152h-22zm50 14h-26v-20.152l2.307 6.152h23.693zm2.557-16h-24.864l-2.25-6h24.864zm-1.557-19.28c0 1.79-.783 3.479-2.149 4.635l-7.854 6.645h-.997v-2h3v-3c0-1.654-1.346-3-3-3h-2c-.551 0-1-.449-1-1v-1h3c.551 0 1 .449 1 1h2c0-1.654-1.346-3-3-3v-2h-2v2h-3v3c0 1.654 1.346 3 3 3h2c.551 0 1 .449 1 1v1h-3c-.551 0-1-.449-1-1h-2c0 1.654 1.346 3 3 3v2h-.997l-7.854-6.646c-1.366-1.155-2.149-2.844-2.149-4.634v-.649c0-3.347 2.724-6.071 6.071-6.071 1.622 0 3.146.631 4.293 1.778l1.636 1.636 1.636-1.636c1.147-1.147 2.671-1.778 4.293-1.778 3.347 0 6.071 2.724 6.071 6.071zm3-22.72v18h-2.114c-.889-1.513-2.25-2.714-3.886-3.39v-14.61zm-47 12v-1c0-.551-.449-1-1-1h-2c-1.654 0-3-1.346-3-3v-3h3v-2h2v2c1.654 0 3 1.346 3 3h-2c0-.551-.449-1-1-1h-3v1c0 .551.449 1 1 1h2c1.654 0 3 1.346 3 3v3h-3v2h-2v-2c-1.654 0-3-1.346-3-3h2c0 .551.449 1 1 1zm-2 8c6.065 0 11-4.935 11-11s-4.935-11-11-11-11 4.935-11 11 4.935 11 11 11zm0-20c4.962 0 9 4.038 9 9s-4.038 9-9 9-9-4.038-9-9 4.038-9 9-9zm43 50h-10v6h10zm-2 4h-6v-2h6zm-28 0h2v2h-2zm-8 0h2v2h-2zm4 0h2v2h-2zm6-4v2h-10v-2z" fill="url(#SVGID_1_)"/></svg>