<svg id="Layer_5" enable-background="new 0 0 64 64" height="512" viewBox="0 0 64 64" width="512" xmlns="http://www.w3.org/2000/svg" xmlns:xlink="http://www.w3.org/1999/xlink"><linearGradient id="SVGID_1_" gradientUnits="userSpaceOnUse" x1="32" x2="32" y1="63" y2="1"><stop offset="0" stop-color="#9f2fff"/><stop offset="1" stop-color="#0bb1d3"/></linearGradient><path d="m47 5c-6.617 0-12 5.383-12 12s5.383 12 12 12 12-5.383 12-12-5.383-12-12-12zm0 22c-5.514 0-10-4.486-10-10s4.486-10 10-10 10 4.486 10 10-4.486 10-10 10zm5.293-16.707 1.414 1.414-12 12-1.414-1.414zm-2.293 7.707c-1.654 0-3 1.346-3 3s1.346 3 3 3 3-1.346 3-3-1.346-3-3-3zm0 4c-.552 0-1-.449-1-1s.448-1 1-1 1 .449 1 1-.448 1-1 1zm-7-5c1.654 0 3-1.346 3-3s-1.346-3-3-3-3 1.346-3 3 1.346 3 3 3zm0-4c.552 0 1 .449 1 1s-.448 1-1 1-1-.449-1-1 .448-1 1-1zm-32 18c-1.654 0-3 1.346-3 3s1.346 3 3 3 3-1.346 3-3-1.346-3-3-3zm0 4c-.552 0-1-.448-1-1s.448-1 1-1 1 .448 1 1-.448 1-1 1zm36 12h2v.754c0 3.046-1.81 5.779-4.61 6.963l-.779-1.842c2.06-.87 3.39-2.881 3.39-5.121v-.754zm-13-4v1c0 .552.448 1 1 1h2c1.654 0 3 1.346 3 3v3h-3v2h-2v-2c-1.654 0-3-1.346-3-3h2c0 .552.448 1 1 1h3v-1c0-.552-.448-1-1-1h-2c-1.654 0-3-1.346-3-3v-3h3v-2h2v2c1.654 0 3 1.346 3 3h-2c0-.552-.448-1-1-1zm13.416-42h-.832c-4.516 0-8.686 1.916-11.597 5.17l.145-1.302-12.311 1.368 3.265 3.264-7.086 7.086-3-3-11.414 11.414 2.31 2.31c-1.765 1.842-3.023 4.166-3.573 6.768-1.33.307-2.323 1.501-2.323 2.922v4c0 1.654 1.346 3 3 3h1.274c1.496 4.089 5.4 6.9 9.787 6.991.378 3.419 2.681 6.338 5.939 7.487v1.522c0 1.654 1.346 3 3 3h2c1.654 0 3-1.346 3-3v-1h8v1c0 1.654 1.346 3 3 3h2c1.654 0 3-1.346 3-3v-1.246c2.505-.809 4.586-2.425 6-4.508v3.754c0 1.654 1.346 3 3 3h5v-2h-5c-.552 0-1-.448-1-1v-1.171c.312.11.649.171 1 .171 1.654 0 3-1.346 3-3s-1.346-3-3-3c-.351 0-.688.061-1 .171v-4.171h-.001v-1.14c-.024-2.346-.705-4.614-1.965-6.608l9.349-14.023c1.712-2.569 2.617-5.559 2.617-8.645 0-8.593-6.991-15.584-15.584-15.584zm6.584 52c.552 0 1 .448 1 1s-.448 1-1 1-1-.448-1-1 .448-1 1-1zm-31.026-28.628c-.057-.792-.365-1.509-.851-2.08l8.377-8.378.644.644c-.087.67-.144 1.347-.144 2.026 0 3.086.905 6.075 2.617 8.645l5.181 7.771h-8.398c-1.131-3.729-3.811-6.898-7.426-8.628zm-1.974.259c0 .151-.021.302-.063.448l-1.354 4.737c-.198.698-.844 1.184-1.598 1.184-.725 0-1.37-.486-1.568-1.184l-1.355-4.737c-.041-.145-.062-.296-.062-.448 0-.899.732-1.631 1.632-1.631h2.736c.9 0 1.632.732 1.632 1.631zm-5-8.217 3 3 9.914-9.914-1.735-1.736 5.689-.632-.632 5.69-1.736-1.736-10.086 10.086c-.333-.101-.68-.172-1.046-.172h-2.736c-1.622 0-2.983 1.076-3.448 2.546-1.778.502-3.402 1.329-4.803 2.42l-.967-.966zm-9.038 26.312-.208-.726h-2.754c-.552 0-1-.448-1-1v-4c0-.552.448-1 1-1h1.027l.131-.847c.679-4.391 3.828-8.077 7.988-9.501l1.347 4.713c.443 1.552 1.879 2.635 3.522 2.635 1.613 0 3.05-1.083 3.492-2.634l1.122-3.928c3.721 2.004 6.18 5.823 6.36 10.033.142 3.31-1.038 6.445-3.323 8.829-2.286 2.387-5.363 3.7-8.666 3.7h-1.72c-3.843 0-7.263-2.58-8.318-6.274zm44.037 3.145v1.883c.001 4.396-2.977 8.209-7.241 9.276l-.758.19v2.78c0 .552-.448 1-1 1h-2c-.552 0-1-.448-1-1v-3h-12v3c0 .552-.448 1-1 1h-2c-.552 0-1-.448-1-1v-3.036l-.75-.194c-2.763-.712-4.769-3.016-5.166-5.774 3.82-.022 7.379-1.548 10.026-4.311 2.665-2.781 4.042-6.439 3.877-10.299-.02-.467-.072-.928-.139-1.386h8.776c.177 0 .35.016.526.026l4.465 6.697c.532.799 1.424 1.277 2.385 1.277s1.853-.478 2.387-1.277l.412-.618c.769 1.479 1.183 3.103 1.2 4.766zm7.72-21.751-10.996 16.493c-.322.484-1.123.484-1.445 0l-10.997-16.493c-1.492-2.24-2.281-4.846-2.281-7.536 0-.055.006-.109.007-.163l.757.757.76-6.841c2.348-4.528 6.952-7.337 12.06-7.337h.832c7.49 0 13.584 6.094 13.584 13.584 0 2.69-.789 5.296-2.281 7.536zm-36.386 6.917 1.334-1.49c2.118 1.895 3.333 4.612 3.333 7.453h-2c0-2.273-.972-4.446-2.667-5.963z" fill="url(#SVGID_1_)"/></svg>