<svg id="Layer_5" enable-background="new 0 0 64 64" height="512" viewBox="0 0 64 64" width="512" xmlns="http://www.w3.org/2000/svg" xmlns:xlink="http://www.w3.org/1999/xlink"><linearGradient id="SVGID_1_" gradientUnits="userSpaceOnUse" x1="32" x2="32" y1="63" y2="1"><stop offset="0" stop-color="#9f2fff"/><stop offset="1" stop-color="#0bb1d3"/></linearGradient><path d="m14 21v-1c0-.552-.448-1-1-1h-2c-1.654 0-3-1.346-3-3v-3h3v-2h2v2c1.654 0 3 1.346 3 3h-2c0-.552-.448-1-1-1h-3v1c0 .552.448 1 1 1h2c1.654 0 3 1.346 3 3v3h-3v2h-2v-2c-1.654 0-3-1.346-3-3h2c0 .552.448 1 1 1zm-13-3c0-6.065 4.935-11 11-11s11 4.935 11 11-4.935 11-11 11-11-4.935-11-11zm2 0c0 4.963 4.037 9 9 9s9-4.037 9-9-4.037-9-9-9-9 4.037-9 9zm8 27c-.552 0-1-.448-1-1h-2c0 1.654 1.346 3 3 3v2h2v-2h3v-3c0-1.654-1.346-3-3-3h-2c-.552 0-1-.448-1-1v-1h3c.552 0 1 .448 1 1h2c0-1.654-1.346-3-3-3v-2h-2v2h-3v3c0 1.654 1.346 3 3 3h2c.552 0 1 .448 1 1v1zm-10-3c0-6.065 4.935-11 11-11s11 4.935 11 11-4.935 11-11 11-11-4.935-11-11zm2 0c0 4.963 4.037 9 9 9s9-4.037 9-9-4.037-9-9-9-9 4.037-9 9zm60-36v52c0 2.757-2.243 5-5 5h-24c-2.757 0-5-2.243-5-5v-20h-4v-16h4v-16c0-2.757 2.243-5 5-5h24c2.757 0 5 2.243 5 5zm-22.719-3 .501 2h10.438l.501-2zm-9.281 3v3h30v-3c0-1.654-1.346-3-3-3h-4.22l-.999 4h-13.562l-.999-4h-4.22c-1.654 0-3 1.346-3 3zm-4 30h20v2.844l10.452-8.844-10.452-8.844v2.844h-20zm4 2v11h30v-38h-30v11h14v-5.156l15.548 13.156-15.548 13.156v-5.156zm30 20v-7h-30v7c0 1.654 1.346 3 3 3h24c1.654 0 3-1.346 3-3zm-24-4.414 2.414 2.414-2.414 2.414c-.372.372-.888.586-1.414.586h-.586c-1.103 0-2-.897-2-2v-2c0-1.103.897-2 2-2h.586c.526 0 1.042.214 1.414.586zm-.414 2.414-1-1h-.586v2h.586zm12.414-1v2c0 1.103-.897 2-2 2h-2c-1.103 0-2-.897-2-2v-2c0-1.103.897-2 2-2h2c1.103 0 2 .897 2 2zm-1.998 2-.002-2h-2v2zm11.998-2v2c0 1.103-.897 2-2 2h-.586c-.526 0-1.042-.214-1.414-.586l-2.414-2.414 2.414-2.414c.372-.372.888-.586 1.414-.586h.586c1.103 0 2 .897 2 2zm-1.998 2-.002-2h-.586l-1 1 1 1zm-24.002-37h2v-2h-2zm4 0h2v-2h-2zm4 0h2v-2h-2zm-6 22v-2h-2v2zm4-2h-2v2h2zm4 0h-2v2h2z" fill="url(#SVGID_1_)"/></svg>