<svg id="Layer_5" enable-background="new 0 0 64 64" height="512" viewBox="0 0 64 64" width="512" xmlns="http://www.w3.org/2000/svg" xmlns:xlink="http://www.w3.org/1999/xlink"><linearGradient id="SVGID_1_" gradientUnits="userSpaceOnUse" x1="32" x2="32" y1="63" y2=".798"><stop offset="0" stop-color="#9f2fff"/><stop offset="1" stop-color="#0bb1d3"/></linearGradient><path d="m19 26c0-.552-.449-1-1-1h-2c-1.654 0-3-1.346-3-3s1.346-3 3-3h2c1.654 0 3 1.346 3 3h-2c0-.552-.449-1-1-1h-2c-.551 0-1 .448-1 1s.449 1 1 1h2c1.654 0 3 1.346 3 3s-1.346 3-3 3h-2c-1.654 0-3-1.346-3-3h2c0 .552.449 1 1 1h2c.551 0 1-.448 1-1zm27 3h-6v2h6zm-8 0h-2v2h2zm-36.895 5.447-.105-.211v-18.236c0-2.757 2.243-5 5-5h1v-7.535l4.004-2.666 3.004 2 3-2.001 2.999 2 2.999-2 3.994 2.667v7.535h1c2.757 0 5 2.243 5 5v9.101c.323-.066.658-.101 1-.101h14c2.757 0 5 2.243 5 5v28c0 2.757-2.243 5-5 5h-14c-2.154 0-3.977-1.377-4.679-3.29-.886.793-2.042 1.29-3.321 1.29h-18c-2.757 0-5-2.243-5-5v-13.528c0-2.771-.655-5.546-1.895-8.025zm29.895 20.553h20v-16h-2.18l-1.648 8.239c1.073.457 1.828 1.522 1.828 2.761 0 1.654-1.346 3-3 3s-3-1.346-3-3c0-.352.072-.686.184-1h-4.369c.113.314.185.648.185 1 0 1.654-1.346 3-3 3s-3-1.346-3-3c0-1.192.704-2.215 1.713-2.699l-2.1-6.301h13.767l.8-4h3.82v-2h-20zm14-5c0 .552.449 1 1 1s1-.448 1-1-.449-1-1-1-1 .448-1 1zm.98-7h-10.593l1.333 4h8.46zm-9.98 6c-.551 0-1 .448-1 1s.449 1 1 1 1-.448 1-1-.449-1-1-1zm15 9v-1h-20v1c0 1.654 1.346 3 3 3h14c1.654 0 3-1.346 3-3zm-17-31c-1.654 0-3 1.346-3 3v3h20v-3c0-1.654-1.346-3-3-3zm-25-16h16v-6.465l-1.996-1.333-2.998 2-2.999-2-2.999 1.999-3.005-2-2.003 1.334zm-6 22.768c1.309 2.699 2 5.704 2 8.704v13.528c0 1.654 1.346 3 3 3h18c1.654 0 3-1.346 3-3v-23h-24v-18h24v15c0-1.627.793-3.061 2-3.974v-10.026c0-1.654-1.346-3-3-3h-22c-1.654 0-3 1.346-3 3zm4-16.768v14h20v-14zm0 26h20v14h-20zm2 12h4v-2h-4zm6-6v2h4v-2zm4-2v-2h-4v2zm2 4h4v-2h-4zm-6 2v2h4v-2zm-2-4h-4v2h4zm12 6v-2h-4v2zm0-10h-4v2h4zm-16 0v2h4v-2zm5-7c0-1.654 1.346-3 3-3s3 1.346 3 3-1.346 3-3 3-3-1.346-3-3zm2 0c0 .552.449 1 1 1s1-.448 1-1-.449-1-1-1-1 .448-1 1zm6 1v-2c0-1.103.897-2 2-2h2c1.103 0 2 .897 2 2v2c0 1.103-.897 2-2 2h-2c-1.103 0-2-.897-2-2zm2 0h2.001l-.001-2h-2zm-18 0v-2c0-1.103.897-2 2-2h2c1.103 0 2 .897 2 2v2c0 1.103-.897 2-2 2h-2c-1.103 0-2-.897-2-2zm2 0h2.001l-.001-2h-2zm3-30h12v-2h-12zm30.879 8.879c1.133-1.133 3.109-1.133 4.243 0 1.169 1.17 1.169 3.072 0 4.242-.567.567-1.321.879-2.122.879s-1.555-.313-2.122-.879c-1.169-1.17-1.169-3.072.001-4.242zm1.414 2.828c.378.379 1.037.379 1.414 0 .39-.39.39-1.024 0-1.414-.189-.189-.44-.293-.707-.293s-.518.104-.707.293c-.39.39-.39 1.024 0 1.414zm5.707.293v-1c0-2.757-2.243-5-5-5h-1v-6h1c6.065 0 11 4.935 11 11v1zm1.929-2h2.016c-.462-4.165-3.78-7.482-7.945-7.944v2.016c3.061.439 5.489 2.866 5.929 5.928zm12.071 1v1h-6v-1c0-7.168-5.832-13-13-13h-1v-6h1c10.477 0 19 8.523 19 19zm-2.029-1c-.5-8.579-7.392-15.471-15.971-15.971v2.004c7.476.494 13.472 6.491 13.967 13.967z" fill="url(#SVGID_1_)"/></svg>