<svg id="Layer_5" enable-background="new 0 0 64 64" height="512" viewBox="0 0 64 64" width="512" xmlns="http://www.w3.org/2000/svg" xmlns:xlink="http://www.w3.org/1999/xlink"><linearGradient id="SVGID_1_" gradientUnits="userSpaceOnUse" x1="32" x2="32" y1="63" y2="1"><stop offset="0" stop-color="#9f2fff"/><stop offset="1" stop-color="#0bb1d3"/></linearGradient><path d="m63 31.415c0-1.245-.685-2.38-1.787-2.959l-10.213-5.376v-7.08c0-2.757-2.243-5-5-5h-4.526c-2.674-5.888-8.597-10-15.474-10s-12.8 4.112-15.474 10h-4.526c-2.757 0-5 2.243-5 5v26c0 2.757 2.243 5 5 5h11.612l-1.333 4h-1.279c-2.757 0-5 2.243-5 5v1h21.719l.932 3.729c.335 1.336 1.532 2.271 2.911 2.271h18.877c1.379 0 2.576-.935 2.911-2.272l.941-3.764c.891-.088 1.704-.547 2.207-1.302.915-1.375.542-3.24-.833-4.158l-.008-.005 1.124-4.499h.219c1.103 0 2-.897 2-2v-2c0-1.103-.897-2-2-2h-2.567l4.189-8.028c.247-.477.378-1.011.378-1.557zm-30.443 23.416c-.451.298-1.094.165-1.388-.276-.305-.459-.181-1.081.277-1.387l9.463-6.309c.398.567.914 1.039 1.507 1.4zm-6.557-51.831c1.413 0 2.923 2.311 3.91 6h-7.82c.987-3.689 2.497-6 3.91-6zm4.366 8c.342 1.793.562 3.818.615 6h-9.962c.053-2.182.273-4.207.615-6zm10.583 6h-7.968c-.049-2.04-.246-4.082-.586-6h6.861c.961 1.812 1.55 3.845 1.693 6zm4.051 2.922-1.023-.538c-.316-.166-.66-.259-1.011-.317.022-.355.034-.711.034-1.067 0-.338-.031-.667-.051-1h2.051zm-10.546 10.462c-1.442.987-3.024 1.702-4.691 2.132.939-1.413 1.686-3.326 2.221-5.516h4.236zm-15.436-11.384c.049 2.04.246 4.082.586 6h-6.861c-.961-1.812-1.55-3.845-1.693-6zm2.001 0h9.962c-.053 2.182-.273 4.207-.615 6h-8.732c-.342-1.793-.562-3.818-.615-6zm-1.003 8c.533 2.182 1.276 4.089 2.211 5.5-3.32-.865-6.189-2.835-8.198-5.5zm2.074 0h7.819c-.987 3.689-2.496 6-3.91 6s-2.922-2.311-3.909-6zm15.173-2h-4.868c.34-1.918.537-3.96.586-6h7.985c-.008.12-.024.237-.034.356-.62.308-1.143.802-1.476 1.441zm-18.245-8h-7.968c.143-2.155.732-4.188 1.693-6h6.861c-.34 1.918-.537 3.96-.586 6zm6.982 18c2.365 0 4.661-.492 6.787-1.42l-1.785 3.42h-24.002v-20h2.051c-.02.333-.051.662-.051 1 0 9.374 7.626 17 17 17zm15.229-13.278c.333-.638 1.18-.902 1.817-.567l1.787.941-9.451 18.904h-4.21zm-12.229 21.278h11.101c-.066.323-.101.658-.101 1 0 .34.035.673.101.994l-.009.006h-9.065-2.027zm3.111 7.321-.83-3.321h5.811zm12.889-3.321c-1.654 0-3-1.346-3-3s1.346-3 3-3 3 1.346 3 3-1.346 3-3 3zm-5.118-6h-2.264l8.987-17.973 1.792.943zm6.118-28c1.654 0 3 1.346 3 3v6.028l-2-1.053v-3.975c0-1.103-.897-2-2-2h-2.281c-.122-.68-.271-1.35-.471-2zm-8.028-4h-5.987c-.533-2.182-1.276-4.089-2.211-5.5 3.319.865 6.189 2.835 8.198 5.5zm-15.745-5.5c-.935 1.411-1.678 3.319-2.211 5.5h-5.987c2.008-2.665 4.878-4.635 8.198-5.5zm-19.227 38.5v-26c0-1.654 1.346-3 3-3h3.753c-.2.65-.35 1.32-.471 2h-2.282c-1.103 0-2 .897-2 2v20c0 1.103.897 2 2 2h22.959l-1.048 2.009c-1.061.048-1.911.919-1.911 1.991v2h-21c-1.654 0-3-1.346-3-3zm16.721 5h9.279.219l1 4h-11.831zm-4.721 6h14.186c-.226.639-.234 1.343-.002 2h-17.013c.413-1.164 1.525-2 2.829-2zm39.438 8h-.438v-4h-2v4h-2v-6h-2v6h-2v-8h-2v8h-2v-6h-2v6h-2v-4h-2v4h-.438c-.459 0-.859-.312-.97-.757l-.935-3.742c.003-.002.005-.003.008-.004l11.258-7.505c.025 0 .05.008.077.008s.052-.008.079-.008l11.26 7.507c.001.001.003.002.005.003l-.935 3.741c-.112.445-.511.757-.971.757zm4.395-6.446c-.296.442-.943.572-1.386.279l-9.862-6.575c.593-.361 1.109-.833 1.506-1.4l9.463 6.309c.459.307.583.929.279 1.387zm-.944-4.233-4.981-3.321h5.811zm3.111-5.321h-11.092l-.009-.006c.066-.321.101-.654.101-.994 0-.342-.035-.677-.101-1h11.101zm-.152-12.953-4.672 8.953h-7.202c-.914-1.207-2.348-2-3.974-2-.764 0-1.48.186-2.129.494l7.296-14.592 10.115 5.324c.443.233.718.688.718 1.2 0 .215-.053.43-.152.621zm-5.848-2.047c-1.654 0-3 1.346-3 3s1.346 3 3 3 3-1.346 3-3-1.346-3-3-3zm0 4c-.551 0-1-.448-1-1s.449-1 1-1 1 .448 1 1-.449 1-1 1zm-50 7h2v2h-2zm4 0h6v2h-6z" fill="url(#SVGID_1_)"/></svg>