<svg id="Layer_5" enable-background="new 0 0 64 64" height="512" viewBox="0 0 64 64" width="512" xmlns="http://www.w3.org/2000/svg" xmlns:xlink="http://www.w3.org/1999/xlink"><linearGradient id="SVGID_1_" gradientUnits="userSpaceOnUse" x1="32" x2="32" y1="63" y2="1"><stop offset="0" stop-color="#9f2fff"/><stop offset="1" stop-color="#0bb1d3"/></linearGradient><path d="m37 23v2c1.654 0 3 1.346 3 3h-2c0-.552-.449-1-1-1h-3v1c0 .552.449 1 1 1h2c1.654 0 3 1.346 3 3v3h-3v2h-2v-2c-1.654 0-3-1.346-3-3h2c0 .552.449 1 1 1h3v-1c0-.552-.449-1-1-1h-2c-1.654 0-3-1.346-3-3v-3h3v-2zm14-18h-6v2h6zm-8 0h-2v2h2zm-6 48.586 2.414 2.414-2.414 2.414c-.378.378-.88.586-1.414.586h-.586c-1.103 0-2-.897-2-2v-2c0-1.103.897-2 2-2h.586c.534 0 1.036.208 1.414.586zm-.414 2.414-1-1h-.586v2h.586zm12.414-1v2c0 1.103-.897 2-2 2h-2c-1.103 0-2-.897-2-2v-2c0-1.103.897-2 2-2h2c1.103 0 2 .897 2 2zm-1.999 2-.001-2h-2v2zm11.999-2v2c0 1.103-.897 2-2 2h-.586c-.534 0-1.036-.208-1.414-.586l-2.414-2.414 2.414-2.414c.378-.378.88-.586 1.414-.586h.586c1.103 0 2 .897 2 2zm-1.999 2-.001-2h-.586l-1 1 1 1zm-45.001-18c1.103 0 2 .897 2 2h2c0-2.206-1.794-4-4-4s-4 1.794-4 4h-2v2h2v2h-2v2h2c0 2.206 1.794 4 4 4s4-1.794 4-4h-2c0 1.103-.897 2-2 2s-2-.897-2-2h2v-2h-2v-2h2v-2h-2c0-1.103.897-2 2-2zm1-16v-2h2v-2h-2v-2h2v-2h-2v-.586l3.707-3.707-1.414-1.414-3.293 3.293-3.293-3.293-1.414 1.414 3.707 3.707v.586h-2v2h2v2h-2v2h2v2zm50-17v52c0 2.757-2.243 5-5 5h-24c-2.757 0-5-2.243-5-5v-19.521c-.432-.358-.828-.755-1.201-1.174l-5.329 3.331c.341 1.061.53 2.19.53 3.364 0 6.065-4.935 11-11 11s-11-4.935-11-11c0-5.728 4.402-10.442 10-10.949v-6.101c-5.598-.508-10-5.222-10-10.95 0-6.065 4.935-11 11-11s11 4.935 11 11c0 1.174-.189 2.303-.531 3.364l5.329 3.331c.373-.419.769-.816 1.202-1.174v-15.521c0-2.757 2.243-5 5-5h24c2.757 0 5 2.243 5 5zm-32 0v3h30v-3c0-1.654-1.346-3-3-3h-24c-1.654 0-3 1.346-3 3zm12 37h6v-26h-6v4.521c2.441 2.019 4 5.07 4 8.479s-1.559 6.459-4 8.479zm-7-22c-4.962 0-9 4.037-9 9s4.038 9 9 9 9-4.037 9-9-4.038-9-9-9zm-24 4c4.962 0 9-4.037 9-9s-4.038-9-9-9-9 4.037-9 9 4.038 9 9 9zm9 19c0-4.963-4.038-9-9-9s-9 4.037-9 9 4.038 9 9 9 9-4.037 9-9zm5.606-8.307c-1.012-1.663-1.606-3.608-1.606-5.693s.594-4.029 1.605-5.693l-4.929-3.081c-1.712 3.158-4.926 5.383-8.676 5.723v6.101c3.75.34 6.964 2.565 8.676 5.723zm4.394 4.093v9.214h30v-38h-30v9.214c1.502-.77 3.199-1.214 5-1.214s3.498.444 5 1.214v-5.214h10v30h-10v-5.214c-1.502.77-3.199 1.214-5 1.214s-3.498-.444-5-1.214zm30 18.214v-7h-30v7c0 1.654 1.346 3 3 3h24c1.654 0 3-1.346 3-3zm-2-21h-2v2h2zm0 8h-2v2h2zm0-4h-2v2h2z" fill="url(#SVGID_1_)"/></svg>