<svg id="Layer_5" enable-background="new 0 0 64 64" height="512" viewBox="0 0 64 64" width="512" xmlns="http://www.w3.org/2000/svg" xmlns:xlink="http://www.w3.org/1999/xlink"><linearGradient id="SVGID_1_" gradientUnits="userSpaceOnUse" x1="32" x2="32" y1="63" y2="1"><stop offset="0" stop-color="#9f2fff"/><stop offset="1" stop-color="#0bb1d3"/></linearGradient><path d="m16 49v1c0 .552.448 1 1 1h2c1.654 0 3 1.346 3 3v3h-3v2h-2v-2c-1.654 0-3-1.346-3-3h2c0 .552.448 1 1 1h3v-1c0-.552-.448-1-1-1h-2c-1.654 0-3-1.346-3-3v-3h3v-2h2v2c1.654 0 3 1.346 3 3h-2c0-.552-.448-1-1-1zm27-41c0 1.654-1.346 3-3 3h-1v4h-2v-10h3c1.654 0 3 1.346 3 3zm-2 0c0-.551-.448-1-1-1h-1v2h1c.552 0 1-.449 1-1zm14 2.816v4.184h2v-4.184c1.161-.414 2-1.514 2-2.816v-3h-2v3c0 .551-.448 1-1 1s-1-.449-1-1v-3h-2v3c0 1.302.839 2.402 2 2.816zm-22-9.816h30v18h-14v8.184c.314-.112.648-.184 1-.184 1.065 0 1.997.562 2.529 1.401.437-.248.934-.401 1.471-.401 1.065 0 1.997.562 2.529 1.401.437-.248.934-.401 1.471-.401 1.654 0 3 1.346 3 3v12.056c0 .771-.183 1.545-.527 2.235l-1.473 2.945v1.764h2v12h-24v-12h2v-1.667l-2.162-2.884c-.522-.694-.854-1.518-.962-2.38l-.709-5.67c-.085-.681-.331-1.343-.712-1.914l-1.029-1.544c-.279-.418-.426-.904-.426-1.406 0-1.398 1.142-2.535 2.544-2.535 3.085 0 5.707 2.147 6.298 5.106l.854 4.269c.199-.408.304-.864.304-1.319v-20.056h-10v-2h-2v27c0 1.654-1.346 3-3 3h-.214c.77 1.502 1.214 3.199 1.214 5 0 6.065-4.935 11-11 11s-11-4.935-11-11c0-1.801.444-3.498 1.214-5h-.214c-1.654 0-3-1.346-3-3v-27h-4v-8h32zm-18 40.426v-30.426h-2v31.214c.634-.325 1.302-.589 2-.788zm-10-26.426v-4h-2v4zm4.521 30c.445-.538.94-1.033 1.479-1.479v-32.521h-4v33c0 .552.448 1 1 1zm17.479 7c0-4.963-4.037-9-9-9s-9 4.037-9 9 4.037 9 9 9 9-4.037 9-9zm2-8v-33h-12v30.051c.33-.03.662-.051 1-.051 1.041 0 2.045.155 3 .426v-4.426h6v6h-2.695c.81.569 1.544 1.239 2.174 2h1.521c.552 0 1-.448 1-1zm-4-3v-2h-2v2zm8-26v-4h-2v4zm26 38h-20v8h20zm-10-23v4h-2v-4-13c0-.551-.448-1-1-1s-1 .449-1 1v22.056c0 .771-.183 1.545-.527 2.235l-.855 1.709h-2.438l-1.299-6.501c-.405-2.027-2.202-3.499-4.274-3.499-.368 0-.607.235-.607.535 0 .106.031.209.09.297l1.029 1.544c.553.828.909 1.788 1.032 2.775l.709 5.671c.064.517.264 1.01.577 1.427l2.563 3.418v2.333h16v-2.236l1.684-3.366c.207-.415.316-.879.316-1.342v-12.056c0-.551-.448-1-1-1s-1 .449-1 1v2h-2v-2-1c0-.551-.448-1-1-1s-1 .449-1 1v3h-2v-3-1c0-.551-.448-1-1-1s-1 .449-1 1zm0-22c0-.551-.448-1-1-1s-1 .449-1 1v3h2zm-14 9h8c0-1.302.839-2.402 2-2.816v-6.184c0-1.654 1.346-3 3-3s3 1.346 3 3v7h-2v-2h-2v1.184c1.161.414 2 1.514 2 2.816h12v-14h-26zm-14 4h6v6h-6zm2 4h2v-2h-2zm-2-12h6v6h-6zm2 4h2v-2h-2zm-2 12h6v6h-6zm2 4h2v-2h-2z" fill="url(#SVGID_1_)"/></svg>