<svg id="Layer_5" enable-background="new 0 0 64 64" height="512" viewBox="0 0 64 64" width="512" xmlns="http://www.w3.org/2000/svg" xmlns:xlink="http://www.w3.org/1999/xlink"><linearGradient id="SVGID_1_" gradientUnits="userSpaceOnUse" x1="32" x2="32" y1="63" y2=".72"><stop offset="0" stop-color="#9f2fff"/><stop offset="1" stop-color="#0bb1d3"/></linearGradient><path d="m16 43v1c0 .552.449 1 1 1h2c1.654 0 3 1.346 3 3v3h-3v2h-2v-2c-1.654 0-3-1.346-3-3h2c0 .552.449 1 1 1h3v-1c0-.552-.449-1-1-1h-2c-1.654 0-3-1.346-3-3v-3h3v-2h2v2c1.654 0 3 1.346 3 3h-2c0-.552-.449-1-1-1zm40.655-16h6.345l-.008 3.124-1.562 12.496c-.311 2.497-2.445 4.38-4.961 4.38h-29.208l.6 4h27.139c3.309 0 6 2.691 6 6s-2.691 6-6 6-6-2.691-6-6c0-1.538.586-2.937 1.54-4h-19.08c.954 1.063 1.54 2.462 1.54 4 0 3.309-2.691 6-6 6-2.038 0-3.839-1.023-4.924-2.58-.184.052-.363.115-.549.159l-.806 2.421h-5.441l-.807-2.42c-1.515-.365-2.951-.961-4.285-1.777l-2.284 1.142-3.848-3.848 1.143-2.283c-.817-1.334-1.413-2.771-1.777-4.286l-2.422-.807v-5.441l2.42-.807c.364-1.515.96-2.952 1.777-4.286l-1.143-2.283 3.848-3.848 2.284 1.142c1.334-.816 2.771-1.412 4.285-1.777l.808-2.421h5.441l.807 2.421c.487.118.966.268 1.439.434l-2.227-14.855h-9.739c-1.654 0-3-1.346-3-3s1.346-3 3-3h8.278c1.472 0 2.748 1.099 2.966 2.555l2.017 13.445h11.084c-2.145-3.331-3.345-7.263-3.345-11.416v-10.584h2.597c3.902 0 7.73-1.343 10.779-3.781l.624-.499.625.499c3.048 2.438 6.876 3.781 10.778 3.781h2.597v10.584c0 4.153-1.2 8.085-3.345 11.416zm-36.216-12-.172-1.148c-.074-.486-.498-.852-.989-.852h-8.278c-.551 0-1 .448-1 1s.449 1 1 1zm33.561 20h-4v4h4zm2 4h3.867l.5-4h-4.367zm-30.144 12.112-1.758-11.718c-1.667-1.541-3.817-2.394-6.098-2.394-4.962 0-9 4.037-9 9s4.038 9 9 9c1.295 0 2.536-.279 3.701-.807.837-1.573 2.352-2.731 4.155-3.081zm.205-12.112h3.939v-4h-4.539zm5.939 0h4v-4h-4zm12 0h4v-4h-4zm-2-4h-4v4h4zm-.804-2c-1.164-.791-2.23-1.689-3.196-2.674v2.674zm-5.196-4h-4v4h4zm-4 12v4h4v-4zm6 4h4v-4h-4zm6 0h4v-4h-4zm6 0h4v-4h-4zm4-12v-2.674c-.966.985-2.032 1.883-3.196 2.674zm-20-17.416c0 7.277 4.043 13.819 10.553 17.074.895.447 2 .447 2.895 0 6.509-3.255 10.552-9.797 10.552-17.074v-8.584h-.597c-4.092 0-8.111-1.323-11.403-3.74-3.292 2.417-7.311 3.74-11.403 3.74h-.597zm-9.439 13.416.6 4h4.839v-4zm-3.346 29.569c-.136-.501-.215-1.025-.215-1.569 0-.148.012-.293.022-.438-.976.28-1.984.438-3.022.438-6.065 0-11-4.935-11-11s4.935-11 11-11c2.034 0 3.979.56 5.677 1.588l-.364-2.428c-.884-.397-1.802-.716-2.751-.906l-.569-.114-.714-2.14h-2.559l-.714 2.142-.569.113c-1.66.332-3.219.979-4.636 1.923l-.482.322-2.021-1.011-1.809 1.809 1.011 2.02-.322.483c-.944 1.416-1.591 2.977-1.922 4.636l-.113.57-2.143.714v2.559l2.142.713.113.57c.332 1.659.979 3.22 1.922 4.636l.323.483-1.011 2.021 1.809 1.809 2.021-1.011.483.322c1.417.944 2.976 1.591 4.636 1.923l.569.113.714 2.141h2.559l.713-2.141.568-.114c.222-.044.435-.12.654-.176zm5.785-5.569c-2.206 0-4 1.794-4 4s1.794 4 4 4 4-1.794 4-4-1.794-4-4-4zm28 0c-2.206 0-4 1.794-4 4s1.794 4 4 4 4-1.794 4-4-1.794-4-4-4zm-28.039-8h3.039v-4h-3.639zm32.485-2.628.171-1.372h-3.617v4h.469c1.51 0 2.79-1.13 2.977-2.628zm1.554-13.372h-5v4h4.617l.383-3.062zm-25-13.416v-6.612l.891-.098c3.016-.33 5.989-1.326 8.597-2.88l.512-.305.512.305c2.608 1.554 5.582 2.55 8.597 2.88l.891.098v6.612c0 6.515-3.62 12.371-9.447 15.285-.163.084-.358.131-.553.131-.188 0-.378-.044-.549-.128-5.831-2.917-9.451-8.773-9.451-15.288zm2 0c0 5.624 3.055 10.692 7.999 13.32 4.949-2.634 8.001-7.7 8.001-13.32v-4.837c-2.796-.418-5.535-1.355-8-2.738-2.465 1.383-5.204 2.32-8 2.738zm14.707.123-1.414-1.414-7.293 7.293-2.293-2.293-1.414 1.414 3.707 3.707z" fill="url(#SVGID_1_)"/></svg>