<svg id="Layer_5" enable-background="new 0 0 64 64" height="512" viewBox="0 0 64 64" width="512" xmlns="http://www.w3.org/2000/svg" xmlns:xlink="http://www.w3.org/1999/xlink"><linearGradient id="SVGID_1_" gradientUnits="userSpaceOnUse" x1="32" x2="32" y1="63" y2="1"><stop offset="0" stop-color="#9f2fff"/><stop offset="1" stop-color="#0bb1d3"/></linearGradient><path d="m42 44v1c0 .552.448 1 1 1h2c1.654 0 3 1.346 3 3v3h-3v2h-2v-2c-1.654 0-3-1.346-3-3h2c0 .552.448 1 1 1h3v-1c0-.552-.448-1-1-1h-2c-1.654 0-3-1.346-3-3v-3h3v-2h2v2c1.654 0 3 1.346 3 3h-2c0-.552-.448-1-1-1zm-19-31h-6v2h6zm-8 0h-2v2h2zm-6 40.586 2.414 2.414-2.414 2.414c-.372.372-.888.586-1.414.586h-.586c-1.103 0-2-.897-2-2v-2c0-1.103.897-2 2-2h.586c.526 0 1.042.214 1.414.586zm-.414 2.414-1-1h-.586v2h.586zm12.414-1v2c0 1.103-.897 2-2 2h-2c-1.103 0-2-.897-2-2v-2c0-1.103.897-2 2-2h2c1.103 0 2 .897 2 2zm-1.998 2-.002-2h-2v2zm11.998-2v2c0 1.103-.897 2-2 2h-.586c-.526 0-1.042-.214-1.414-.586l-2.414-2.414 2.414-2.414c.372-.372.888-.586 1.414-.586h.586c1.103 0 2 .897 2 2zm-1.998 2-.002-2h-.586l-1 1 1 1zm-20.002-26h-2v-10h3c1.654 0 3 1.346 3 3s-1.346 3-3 3h-1zm0-6h1c.552 0 1-.449 1-1s-.448-1-1-1h-1zm8 6h-2v-7c0-1.654 1.346-3 3-3s3 1.346 3 3v7h-2v-2h-2zm0-7v3h2v-3c0-.551-.448-1-1-1s-1 .449-1 1zm8 2.816v4.184h2v-4.184c1.161-.414 2-1.514 2-2.816v-3h-2v3c0 .551-.448 1-1 1s-1-.449-1-1v-3h-2v3c0 1.302.839 2.402 2 2.816zm-10 12.184h-10v-6h10zm-2-4h-6v2h6zm4-2h14v6h-14zm2 4h10v-2h-10zm-14 4h26v6h-26zm2 4h22v-2h-22zm12-44h44v42h-8.764c.487 1.242.764 2.588.764 4 0 6.065-4.935 11-11 11-3.72 0-7.008-1.861-9-4.695v4.695c0 2.757-2.243 5-5 5h-24c-2.757 0-5-2.243-5-5v-44c0-2.757 2.243-5 5-5h13zm-16 13v3h30v-3c0-1.654-1.346-3-3-3h-24c-1.654 0-3 1.346-3 3zm30 5h-30v30h30zm0 39v-7h-30v7c0 1.654 1.346 3 3 3h24c1.654 0 3-1.346 3-3zm20-11c0-4.963-4.037-9-9-9s-9 4.037-9 9 4.037 9 9 9 9-4.037 9-9zm8-6v-6h-6v6zm0-38h-6v6h6zm-40 0v6h9c2.757 0 5 2.243 5 5v26.695c.569-.81 1.239-1.544 2-2.174v-3.521h2v2.214c.634-.325 1.302-.59 2-.788v-3.426h-4v-2h4c1.103 0 2 .897 2 2v3.051c.33-.03.662-.051 1-.051s.67.021 1 .051v-3.051c0-1.103.897-2 2-2h4v2h-4v3.426c.698.198 1.366.463 2 .788v-2.214h2v3.521c.761.63 1.431 1.364 2 2.174v-7.695h8v-22h-8v-8zm38 4v-2h-2v2zm-2 32h2v-2h-2zm-24-34h-2v2h2zm-8 0h-2v2h2zm4 0h-2v2h2zm22 10h4v-2h-4v-8h-2v8c0 1.103.897 2 2 2zm8 2v-3h-2v3h-8v2h8c1.103 0 2-.897 2-2zm-20-6h2v-4c0-1.103-.897-2-2-2h-4v2h4zm8-6h-4v2h4zm-2 8h-8v2h8c1.103 0 2-.897 2-2v-4h-2zm-2 10h-4v-6h-2v6c0 1.103.897 2 2 2h4zm-2-4v2h2v-2h4v-2h-4c-1.103 0-2 .897-2 2zm16 4h-4v2h4c1.103 0 2-.897 2-2v-2h-2zm0 8h2v-4h-2zm-12-4h-4v2h4c1.103 0 2-.897 2-2v-6h-2zm-8 2h2v-2h-2zm14 0h4v-2h-4v-6h-2v6c0 1.103.897 2 2 2z" fill="url(#SVGID_1_)"/></svg>