<svg id="Layer_5" enable-background="new 0 0 64 64" height="512" viewBox="0 0 64 64" width="512" xmlns="http://www.w3.org/2000/svg" xmlns:xlink="http://www.w3.org/1999/xlink"><linearGradient id="SVGID_1_" gradientUnits="userSpaceOnUse" x1="32" x2="32" y1="63" y2="1"><stop offset="0" stop-color="#9f2fff"/><stop offset="1" stop-color="#0bb1d3"/></linearGradient><path d="m50 9v1c0 .552.448 1 1 1h2c1.654 0 3 1.346 3 3v3h-3v2h-2v-2c-1.654 0-3-1.346-3-3h2c0 .552.448 1 1 1h3v-1c0-.552-.448-1-1-1h-2c-1.654 0-3-1.346-3-3v-3h3v-2h2v2c1.654 0 3 1.346 3 3h-2c0-.552-.448-1-1-1zm3.142 13.94c1.23 2.858 1.858 5.898 1.858 9.06 0 1.689-.191 3.364-.553 5h5.553c1.654 0 3 1.346 3 3v20c0 1.654-1.346 3-3 3h-12c-1.654 0-3-1.346-3-3v-9.028c-3.809 2.608-8.353 4.028-13 4.028-6.089 0-11.786-2.342-16.111-6.596-2.247.472-4.374.727-6.282.727-1.078 0-2.087-.078-3.014-.238-3.24-.561-5.593-3.408-5.593-6.767 0-1.032.201-1.977.597-2.805 1.282-2.676 3.858-5.608 7.444-8.5.065-1.289.234-2.567.513-3.821h-5.554c-1.654 0-3-1.346-3-3v-20c0-1.654 1.346-3 3-3h12c1.654 0 3 1.346 3 3v9.028c3.809-2.608 8.352-4.028 13-4.028 3.162 0 6.201.627 9.06 1.857.574-5.53 5.261-9.857 10.94-9.857 6.065 0 11 4.935 11 11 0 5.68-4.327 10.367-9.858 10.94zm-5.698-.94h-5.521c.265 1.165.484 2.389.654 3.665l4.697-.939-1.254 6.274h6.951c-.13-2.818-.812-5.519-2.027-8.053-1.239-.119-2.414-.45-3.5-.947zm-13.472 5.386 6.642-1.328c-.185-1.421-.427-2.783-.73-4.058h-15.757c-.648 2.713-1.036 5.776-1.105 9h13.786c.133-.124.276-.247.405-.372zm-23.997 11.225c-1.515 1.735-2.395 3.084-2.76 4.231 1.304.201 2.828.206 4.512.022-.73-1.358-1.312-2.783-1.752-4.253zm11.746 1.623c-.415-2.314-.649-4.738-.698-7.234h-9.988c.16 3.372 1.124 6.64 2.817 9.546 2.449-.452 5.128-1.231 7.869-2.312zm4.274-1.908c3.115-1.559 6.007-3.388 8.472-5.326h-11.444c.046 2.219.243 4.374.59 6.44.794-.35 1.59-.717 2.382-1.114zm-1.32-18.326h14.66c-1.668-5.463-4.399-9-7.335-9-2.983 0-5.677 3.605-7.325 9zm19.799 0c-1.891-1.78-3.159-4.214-3.42-6.944-1.262-.605-2.564-1.081-3.902-1.419 1.754 1.917 3.229 4.795 4.26 8.362h3.062zm-25.474-4.474v4.474h3.567c1.013-3.526 2.467-6.405 4.214-8.333-2.822.725-5.476 2.038-7.781 3.859zm-2-8.526h-14v14h14zm-14-3v1h14v-1c0-.552-.448-1-1-1h-12c-.552 0-1 .448-1 1zm1 21h12c.552 0 1-.448 1-1v-1h-14v1c0 .552.448 1 1 1zm7.611 2c-.319 1.309-.514 2.646-.577 4h9.978c.063-3.231.43-6.271 1.045-9h-3.057v2c0 1.654-1.346 3-3 3zm-8.36 13.547.057.133c.329.686 1.01 1.24 1.976 1.64.513-1.685 1.795-3.557 4.125-6.062-.175-.934-.299-1.879-.358-2.835-2.677 2.338-4.659 4.697-5.648 6.762-.058.117-.108.237-.152.362zm24.529 1.479c5.179-2.61 9.785-5.892 12.971-9.24l.707-.742 1.928 1.928 1.34-6.697-6.697 1.34 2.006 2.006-.688.707c-3.114 3.205-7.538 6.326-12.457 8.788-8.463 4.237-17.054 5.903-21.882 4.254-.697-.24-1.308-.542-1.828-.906.486 1.769 1.918 3.141 3.755 3.459 5.025.871 13.212-1.052 20.845-4.897zm11.526 1.974h-11.022c-1.045.517-2.092.99-3.139 1.433 1.734 4.756 4.263 7.567 6.855 7.567 2.926 0 5.639-3.607 7.306-9zm.549-2c.487-2.011.836-4.206 1.01-6.523-2.45 2.309-5.485 4.543-8.865 6.523zm-21.622 5.841c2.478 2.162 5.381 3.673 8.516 4.476-1.334-1.482-2.509-3.548-3.457-6.127-1.715.657-3.41 1.208-5.059 1.651zm26.767.632v-4.473h-3.589c-1.025 3.54-2.494 6.419-4.246 8.344 2.842-.722 5.515-2.039 7.835-3.871zm2 8.527h14v-14h-14zm14 3v-1h-14v1c0 .552.448 1 1 1h12c.552 0 1-.448 1-1zm-1-21h-12c-.552 0-1 .448-1 1v1h14v-1c0-.552-.448-1-1-1zm-7.611-2c.319-1.308.513-2.646.577-4h-7.346l-1.005 5.028-1.796-1.796c-.177 2.04-.485 3.968-.895 5.768h3.076v-2c0-1.654 1.346-3 3-3zm8.611-25c0-4.963-4.037-9-9-9s-9 4.037-9 9 4.037 9 9 9 9-4.037 9-9zm-56 7v-10h10v10zm2-2h6v-6h-6zm52 28v10h-10v-10zm-2 2h-6v6h6z" fill="url(#SVGID_1_)"/></svg>